<svg version="1" xmlns="http://www.w3.org/2000/svg" width="853.333" height="853.333" viewBox="0 0 640.000000 640.000000"><path d="M157.5 155c-2.7.4-7.4 1-10.3 1.4-3 .3-7.5 1.1-10 1.7-2.6.6-5.6 1.3-6.8 1.5-4.1.8-22.9 6.6-23.9 7.4-.5.4-2.8 1.3-5 2-4.5 1.4-21.9 10.1-28 13.9-24.9 15.8-45.2 38.6-57.5 64.6-4.5 9.4-10.3 24.9-11.4 30.5-.3 1.4-.7 3.4-.9 4.5-2.5 11.9-3.1 18.2-3.2 32 0 8.8.3 18.2.7 21 4.1 29.4 14.3 57 29.6 80 2.6 3.8 5.1 7.5 5.7 8.1.5.7 2.6 3.1 4.5 5.5 21.8 27 61.5 49.7 95.5 54.4 10.4 1.5 14.8 1.7 30.5 1.6 9.6-.1 18.9-.3 20.5-.5 1.7-.2 5.5-.7 8.5-1 33.6-4.1 64-18.6 86.9-41.7 17.8-17.9 38.4-51.4 71-115.4 13.4-26.2 19.5-36.5 31.2-52 12.4-16.5 21.8-24.9 36.9-32.9 35.2-18.6 77.8-17.2 103.8 3.3 10.7 8.5 18.8 18.1 25.4 30.1 2.7 4.9 5.8 12.4 6.4 15.3.2 1 .6 2.7.9 3.7 3.3 10.5 4.1 33.1 1.6 45.5-3.9 18.8-12.3 34.4-25.7 47.8-11.8 11.8-28.2 20.1-44.3 22.5-10.7 1.6-35.7.4-41.9-1.9-1.5-.6-2.9-1-3.2-1-.9.1-8.5-2-10.5-2.8-22.8-9.7-39.2-21.1-61.5-42.6l-7.2-6.9-8.6 8.9c-4.8 5-9.6 10.3-10.7 11.9-1.1 1.6-2.9 4-4 5.5-6.1 7.7-14.3 23.2-18.9 35.3-3 8.1-7.2 25.3-8.1 32.8-.3 3-.8 7.3-1.2 9.5-.4 2.2-.7 30.8-.7 63.7l-.1 59.6h78.4l.1-54.1c0-47 .4-68.4 1.5-69.5.1-.1 2.2 1.2 4.6 3 13.4 10 27.6 16.9 42.9 20.7 20.1 4.9 50 4.5 70.4-1 2.3-.6 5.2-1.3 6.5-1.6 2.5-.4 13.5-4.2 18.6-6.4 1.7-.7 3.2-1.3 3.5-1.4 3.1-.9 13.4-6.3 21-11 21.7-13.1 37.9-28.6 51.9-49.4 6.7-9.8 16.5-29.7 18-36.3.1-.4.9-2.7 1.7-5 1.4-3.9 4-13.9 5-19.4 3-16.1 2.8-47.6-.5-63.4-7.7-36.7-24-64.4-55.2-93.2-4.8-4.4-21.4-15.1-31.9-20.5-20.7-10.6-36-15.4-57-18-10.3-1.2-39.2-.6-47.5 1-1.1.3-3.6.7-5.5 1.1-6 1.1-7.3 1.4-14.5 3.6-22 6.8-42.2 22.9-56.9 45.4-10.9 16.6-17.2 32.6-24.1 61.6-4.9 20.6-9.4 33.8-16.9 49.5-10.2 21.3-19.4 35-33.5 49.7-17.9 18.8-41.7 34.2-63.8 41.2-17.2 5.4-28.2 6.9-49.8 7-22.5.1-26.6-.3-38.9-3.9-19.9-5.8-35.5-16.9-46.1-32.8-2.2-3.3-3.4-6.1-2.9-6.6.5-.4 16.2-6.3 34.9-13.1 61.8-22.4 74.9-27.1 86-31.1 6.1-2.2 11.9-4.4 13-4.9 1.1-.5 5.8-2.2 10.5-3.8 8-2.8 29.1-10.4 53.5-19.4 33.2-12.1 39.2-15 38.8-18.7-.9-7.5-14.8-38-23.8-52.1-12.6-19.7-28.1-35.7-47.3-48.4-17.7-11.8-41.4-21.1-61.2-24.1-1.9-.3-4.8-.8-6.3-1.1-4.3-.9-27.6-1.1-33.2-.4zm24 67.4c5.9.8 19.3 5 25 7.9 9.4 4.7 18.4 11.8 26.3 20.8l2.3 2.6-8.3 3.1c-10.4 3.8-29.5 10.7-45.8 16.5-57.4 20.6-74.7 26.8-76 27.4-.8.3-1.9.7-2.5.9-.5.1-7.3 2.5-15 5.3-7.6 2.8-14.1 5.1-14.3 5.1-.1 0-.1-1.7.2-3.8.3-2 .8-5.7 1.1-8.2 1-7.4 1.4-9.2 3.5-16.5 7.1-24.9 27.6-45.2 56.7-56.1 3.5-1.3 6.3-2.1 6.3-1.8 0 .4.6.2 1.3-.3.6-.6 2.8-1.3 4.7-1.6 1.9-.4 5.1-.9 7-1.2 1.9-.3 3.5-.7 3.6-.8.5-.5 19.2.1 23.9.7z"/></svg>